<svg xmlns="http://www.w3.org/2000/svg"  viewBox="0 0 333333 333333" shape-rendering="geometricPrecision" text-rendering="geometricPrecision" image-rendering="optimizeQuality" fill-rule="evenodd" clip-rule="evenodd"><path d="M325861 81108c2300-7701 0-13401-11001-13401h-36504c-9301 0-13501 4900-15902 10301 0 0-18502 45204-44804 74607-8501 8501-12401 11201-17002 11201-2300 0-5800-2700-5800-10401V81208c0-9301-2600-13401-10301-13401h-57306c-5800 0-9301 4300-9301 8401 0 8801 13101 10801 14502 35504v53706c0 11801-2100 13902-6801 13902-12401 0-42404-45404-60306-97410-3500-10101-7001-14202-16302-14202H12529C2128 67708 28 72608 28 78009c0 9701 12401 57606 57606 120912 30103 43304 72607 66707 111211 66707 23202 0 26003-5200 26003-14202v-32703c0-10401 2200-12501 9501-12501 5400 0 14702 2700 36304 23602 24702 24702 28803 35804 42704 35804h36504c10401 0 15602-5200 12601-15502-3300-10201-15102-25102-30803-42704-8501-10001-21202-20902-25102-26303-5400-7001-3900-10001 0-16202 0 0 44404-62606 49105-83808h200z" fill="#45668e"/></svg>