<?xml version="1.0" encoding="utf-8"?><svg version="1.1" id="Layer_1" xmlns="http://www.w3.org/2000/svg" xmlns:xlink="http://www.w3.org/1999/xlink" x="0px" y="0px" viewBox="0 0 71.59 122.88" style="enable-background:new 0 0 71.59 122.88" xml:space="preserve"><style type="text/css"><![CDATA[
	.st0{fill:#EE8208;}
]]></style><g><path class="st0" d="M47.55,89.02c12.75-2.6,20.39-8.63,20.79-8.96c3.73-2.99,4.33-8.44,1.34-12.17 c-2.99-3.73-8.44-4.33-12.17-1.34c-0.08,0.06-8.23,6.31-21.63,6.32c-13.41-0.01-21.73-6.26-21.8-6.32 c-3.73-2.99-9.18-2.39-12.17,1.34c-2.99,3.73-2.39,9.18,1.34,12.17c0.41,0.33,8.36,6.52,21.47,9.06L6.45,108.21 c-3.32,3.44-3.22,8.92,0.22,12.24c1.68,1.62,3.85,2.42,6.01,2.42c2.27,0,4.54-0.88,6.23-2.65l16.97-18.07l18.68,18.19 c3.38,3.38,8.87,3.38,12.24-0.01c3.38-3.38,3.37-8.87-0.01-12.24L47.55,89.02L47.55,89.02z M36.31,0C18.73,0,4.47,14.26,4.47,31.84 c0,17.59,14.26,31.84,31.84,31.84c17.59,0,31.84-14.26,31.84-31.84C68.15,14.26,53.9,0,36.31,0L36.31,0z M36.31,45.01 c-7.27,0-13.16-5.89-13.16-13.16c0-7.27,5.89-13.16,13.16-13.16c7.27,0,13.16,5.89,13.16,13.16 C49.47,39.11,43.58,45.01,36.31,45.01L36.31,45.01z"/></g></svg>